<svg id="visual" viewBox="0 0 1080 540" width="1080" height="540" xmlns="http://www.w3.org/2000/svg" xmlns:xlink="http://www.w3.org/1999/xlink" version="1.1"><path d="M0 170L25.7 173.7C51.3 177.3 102.7 184.7 154.2 171.7C205.7 158.7 257.3 125.3 308.8 104.8C360.3 84.3 411.7 76.7 463 92.3C514.3 108 565.7 147 617 159C668.3 171 719.7 156 771.2 145.3C822.7 134.7 874.3 128.3 925.8 136.7C977.3 145 1028.7 168 1054.3 179.5L1080 191L1080 0L1054.3 0C1028.7 0 977.3 0 925.8 0C874.3 0 822.7 0 771.2 0C719.7 0 668.3 0 617 0C565.7 0 514.3 0 463 0C411.7 0 360.3 0 308.8 0C257.3 0 205.7 0 154.2 0C102.7 0 51.3 0 25.7 0L0 0Z" fill="#cc0a27" stroke-linecap="round" stroke-linejoin="miter"></path></svg>