<svg id="visual" viewBox="0 0 1080 540" width="1080" height="540" xmlns="http://www.w3.org/2000/svg" xmlns:xlink="http://www.w3.org/1999/xlink" version="1.1"><path d="M0 218L25.7 208.8C51.3 199.7 102.7 181.3 154.2 179C205.7 176.7 257.3 190.3 308.8 194.5C360.3 198.7 411.7 193.3 463 194.2C514.3 195 565.7 202 617 202.2C668.3 202.3 719.7 195.7 771.2 195.8C822.7 196 874.3 203 925.8 199.7C977.3 196.3 1028.7 182.7 1054.3 175.8L1080 169L1080 0L1054.3 0C1028.7 0 977.3 0 925.8 0C874.3 0 822.7 0 771.2 0C719.7 0 668.3 0 617 0C565.7 0 514.3 0 463 0C411.7 0 360.3 0 308.8 0C257.3 0 205.7 0 154.2 0C102.7 0 51.3 0 25.7 0L0 0Z" fill="#fa7268"></path><path d="M0 175L25.7 175.8C51.3 176.7 102.7 178.3 154.2 168.7C205.7 159 257.3 138 308.8 134.2C360.3 130.3 411.7 143.7 463 154.8C514.3 166 565.7 175 617 171.7C668.3 168.3 719.7 152.7 771.2 140.2C822.7 127.7 874.3 118.3 925.8 121.7C977.3 125 1028.7 141 1054.3 149L1080 157L1080 0L1054.3 0C1028.7 0 977.3 0 925.8 0C874.3 0 822.7 0 771.2 0C719.7 0 668.3 0 617 0C565.7 0 514.3 0 463 0C411.7 0 360.3 0 308.8 0C257.3 0 205.7 0 154.2 0C102.7 0 51.3 0 25.7 0L0 0Z" fill="#ef5f57"></path><path d="M0 135L25.7 131.5C51.3 128 102.7 121 154.2 121.5C205.7 122 257.3 130 308.8 124.2C360.3 118.3 411.7 98.7 463 89.8C514.3 81 565.7 83 617 88.2C668.3 93.3 719.7 101.7 771.2 104.2C822.7 106.7 874.3 103.3 925.8 100.7C977.3 98 1028.7 96 1054.3 95L1080 94L1080 0L1054.3 0C1028.7 0 977.3 0 925.8 0C874.3 0 822.7 0 771.2 0C719.7 0 668.3 0 617 0C565.7 0 514.3 0 463 0C411.7 0 360.3 0 308.8 0C257.3 0 205.7 0 154.2 0C102.7 0 51.3 0 25.7 0L0 0Z" fill="#e44a47"></path><path d="M0 72L25.7 75.7C51.3 79.3 102.7 86.7 154.2 88.5C205.7 90.3 257.3 86.7 308.8 86.8C360.3 87 411.7 91 463 87.5C514.3 84 565.7 73 617 68C668.3 63 719.7 64 771.2 67C822.7 70 874.3 75 925.8 75.5C977.3 76 1028.7 72 1054.3 70L1080 68L1080 0L1054.3 0C1028.7 0 977.3 0 925.8 0C874.3 0 822.7 0 771.2 0C719.7 0 668.3 0 617 0C565.7 0 514.3 0 463 0C411.7 0 360.3 0 308.8 0C257.3 0 205.7 0 154.2 0C102.7 0 51.3 0 25.7 0L0 0Z" fill="#d83237"></path><path d="M0 60L25.7 59.5C51.3 59 102.7 58 154.2 59C205.7 60 257.3 63 308.8 63.7C360.3 64.3 411.7 62.7 463 61C514.3 59.3 565.7 57.7 617 56.3C668.3 55 719.7 54 771.2 53.7C822.7 53.3 874.3 53.7 925.8 48.7C977.3 43.7 1028.7 33.3 1054.3 28.2L1080 23L1080 0L1054.3 0C1028.7 0 977.3 0 925.8 0C874.3 0 822.7 0 771.2 0C719.7 0 668.3 0 617 0C565.7 0 514.3 0 463 0C411.7 0 360.3 0 308.8 0C257.3 0 205.7 0 154.2 0C102.7 0 51.3 0 25.7 0L0 0Z" fill="#cc0a27"></path></svg>